<svg id="visual" viewBox="0 0 24 24" width="24" height="24" xmlns="http://www.w3.org/2000/svg" xmlns:xlink="http://www.w3.org/1999/xlink" version="1.1"><g transform="translate(14.057293878549544 12.562582333781002)"><path d="M4.8 -9.8C5 -8.2 2.9 -4.4 3.4 -2.4C3.9 -0.3 7 -0.2 7.5 0.3C8.1 0.8 6.2 1.7 4.6 1.7C2.9 1.7 1.4 0.8 0.7 0.7C0 0.7 0 1.3 -1.1 3.2C-2.2 5.1 -4.3 8.2 -6.8 9.3C-9.2 10.3 -12 9.4 -10.9 7.5C-9.8 5.7 -4.9 2.8 -5.1 -0.1C-5.2 -3 -10.4 -6 -11.5 -7.9C-12.6 -9.8 -9.5 -10.5 -6.9 -10.7C-4.3 -10.8 -2.2 -10.4 0.1 -10.6C2.3 -10.7 4.7 -11.4 4.8 -9.8" fill="#4051b5"></path></g></svg>