<svg id="visual" viewBox="0 0 24 24" width="24" height="24" xmlns="http://www.w3.org/2000/svg" xmlns:xlink="http://www.w3.org/1999/xlink" version="1.1"><g transform="translate(10.781933360406033 16.275808925887894)"><path d="M5.1 -11.3C5.5 -8.6 4.1 -5 5.7 -3C7.4 -1 12.2 -0.5 12.8 0.3C13.4 1.2 9.7 2.3 7.5 3.3C5.2 4.4 4.4 5.2 3.3 5.8C2.3 6.4 1.2 6.7 0.6 5.7C0 4.7 0 2.3 -2.3 2.5C-4.6 2.7 -9.2 5.3 -9.7 5.3C-10.2 5.3 -6.6 2.7 -6.8 -0.1C-6.9 -2.8 -10.8 -5.7 -10.4 -5.8C-10 -6 -5.2 -3.4 -2.8 -5C-0.3 -6.6 -0.2 -12.3 1.1 -14.2C2.3 -16 4.7 -14.1 5.1 -11.3" fill="#4051b5"></path></g></svg>